<mxfile host="app.diagrams.net" modified="2023-04-25T07:40:34.951Z" agent="Mozilla/5.0 (Windows NT 10.0; Win64; x64) AppleWebKit/537.36 (KHTML, like Gecko) Chrome/112.0.0.0 Safari/537.36" etag="y-dlMA7nVsVCV0y2WnUv" version="21.2.1" type="device">
  <diagram name="Trang-1" id="YHXR9adGC5k-HaqScfoF">
    <mxGraphModel dx="2900" dy="1962" grid="0" gridSize="10" guides="1" tooltips="1" connect="1" arrows="1" fold="1" page="0" pageScale="1" pageWidth="827" pageHeight="1169" math="0" shadow="0">
      <root>
        <mxCell id="0" />
        <mxCell id="1" parent="0" />
        <mxCell id="F0mnNlWy2IH6ZafnkYwD-2" value="Member" style="shape=umlActor;verticalLabelPosition=bottom;verticalAlign=top;html=1;outlineConnect=0;" vertex="1" parent="1">
          <mxGeometry x="-601" y="-351" width="44" height="78" as="geometry" />
        </mxCell>
        <mxCell id="F0mnNlWy2IH6ZafnkYwD-3" value="Login" style="ellipse;whiteSpace=wrap;html=1;" vertex="1" parent="1">
          <mxGeometry x="-395" y="-558" width="117" height="54" as="geometry" />
        </mxCell>
        <mxCell id="F0mnNlWy2IH6ZafnkYwD-4" value="Signup" style="ellipse;whiteSpace=wrap;html=1;" vertex="1" parent="1">
          <mxGeometry x="-392" y="-632" width="114" height="52" as="geometry" />
        </mxCell>
        <mxCell id="F0mnNlWy2IH6ZafnkYwD-6" value="Logout" style="ellipse;whiteSpace=wrap;html=1;" vertex="1" parent="1">
          <mxGeometry x="-395" y="-482" width="117" height="54" as="geometry" />
        </mxCell>
        <mxCell id="F0mnNlWy2IH6ZafnkYwD-7" value="Employee" style="shape=umlActor;verticalLabelPosition=bottom;verticalAlign=top;html=1;outlineConnect=0;" vertex="1" parent="1">
          <mxGeometry x="470" y="-582" width="44" height="78" as="geometry" />
        </mxCell>
        <mxCell id="F0mnNlWy2IH6ZafnkYwD-8" value="View Product" style="ellipse;whiteSpace=wrap;html=1;" vertex="1" parent="1">
          <mxGeometry x="-392" y="-387" width="114" height="52" as="geometry" />
        </mxCell>
        <mxCell id="F0mnNlWy2IH6ZafnkYwD-9" value="" style="endArrow=classic;html=1;rounded=0;fontFamily=Helvetica;fontSize=12;fontColor=default;exitX=1;exitY=0.3333333333333333;exitDx=0;exitDy=0;exitPerimeter=0;entryX=0;entryY=0.5;entryDx=0;entryDy=0;" edge="1" parent="1" source="F0mnNlWy2IH6ZafnkYwD-2" target="F0mnNlWy2IH6ZafnkYwD-4">
          <mxGeometry width="50" height="50" relative="1" as="geometry">
            <mxPoint x="-521" y="-383" as="sourcePoint" />
            <mxPoint x="-471" y="-433" as="targetPoint" />
          </mxGeometry>
        </mxCell>
        <mxCell id="F0mnNlWy2IH6ZafnkYwD-10" value="" style="endArrow=classic;html=1;rounded=0;fontFamily=Helvetica;fontSize=12;fontColor=default;exitX=1;exitY=0.3333333333333333;exitDx=0;exitDy=0;exitPerimeter=0;entryX=0;entryY=0.5;entryDx=0;entryDy=0;" edge="1" parent="1" source="F0mnNlWy2IH6ZafnkYwD-2" target="F0mnNlWy2IH6ZafnkYwD-3">
          <mxGeometry width="50" height="50" relative="1" as="geometry">
            <mxPoint x="-547" y="-315" as="sourcePoint" />
            <mxPoint x="-382" y="-596" as="targetPoint" />
          </mxGeometry>
        </mxCell>
        <mxCell id="F0mnNlWy2IH6ZafnkYwD-11" value="" style="endArrow=classic;html=1;rounded=0;fontFamily=Helvetica;fontSize=12;fontColor=default;exitX=1;exitY=0.3333333333333333;exitDx=0;exitDy=0;exitPerimeter=0;entryX=0;entryY=0.5;entryDx=0;entryDy=0;" edge="1" parent="1" source="F0mnNlWy2IH6ZafnkYwD-2" target="F0mnNlWy2IH6ZafnkYwD-6">
          <mxGeometry width="50" height="50" relative="1" as="geometry">
            <mxPoint x="-537" y="-305" as="sourcePoint" />
            <mxPoint x="-372" y="-586" as="targetPoint" />
          </mxGeometry>
        </mxCell>
        <mxCell id="F0mnNlWy2IH6ZafnkYwD-12" value="" style="endArrow=classic;html=1;rounded=0;fontFamily=Helvetica;fontSize=12;fontColor=default;exitX=1;exitY=0.3333333333333333;exitDx=0;exitDy=0;exitPerimeter=0;entryX=0;entryY=0.5;entryDx=0;entryDy=0;" edge="1" parent="1" source="F0mnNlWy2IH6ZafnkYwD-2" target="F0mnNlWy2IH6ZafnkYwD-8">
          <mxGeometry width="50" height="50" relative="1" as="geometry">
            <mxPoint x="-527" y="-295" as="sourcePoint" />
            <mxPoint x="-362" y="-576" as="targetPoint" />
          </mxGeometry>
        </mxCell>
        <mxCell id="F0mnNlWy2IH6ZafnkYwD-14" value="search Product" style="ellipse;whiteSpace=wrap;html=1;" vertex="1" parent="1">
          <mxGeometry x="-392" y="-273" width="114" height="52" as="geometry" />
        </mxCell>
        <mxCell id="F0mnNlWy2IH6ZafnkYwD-15" value="" style="endArrow=classic;html=1;rounded=0;fontFamily=Helvetica;fontSize=12;fontColor=default;entryX=0.5;entryY=0;entryDx=0;entryDy=0;exitX=0.5;exitY=1;exitDx=0;exitDy=0;" edge="1" parent="1" source="F0mnNlWy2IH6ZafnkYwD-8" target="F0mnNlWy2IH6ZafnkYwD-14">
          <mxGeometry width="50" height="50" relative="1" as="geometry">
            <mxPoint x="-268" y="-360" as="sourcePoint" />
            <mxPoint x="-218" y="-410" as="targetPoint" />
          </mxGeometry>
        </mxCell>
        <mxCell id="F0mnNlWy2IH6ZafnkYwD-17" value="Add to Cart" style="ellipse;whiteSpace=wrap;html=1;" vertex="1" parent="1">
          <mxGeometry x="-206" y="-387" width="114" height="52" as="geometry" />
        </mxCell>
        <mxCell id="F0mnNlWy2IH6ZafnkYwD-18" value="Include" style="text;html=1;strokeColor=none;fillColor=none;align=center;verticalAlign=middle;whiteSpace=wrap;rounded=0;fontSize=12;fontFamily=Helvetica;fontColor=default;" vertex="1" parent="1">
          <mxGeometry x="-338" y="-315" width="60" height="30" as="geometry" />
        </mxCell>
        <mxCell id="F0mnNlWy2IH6ZafnkYwD-21" value="" style="endArrow=classic;html=1;rounded=0;fontFamily=Helvetica;fontSize=12;fontColor=default;entryX=0;entryY=0.5;entryDx=0;entryDy=0;exitX=1;exitY=0.5;exitDx=0;exitDy=0;" edge="1" parent="1" source="F0mnNlWy2IH6ZafnkYwD-19" target="F0mnNlWy2IH6ZafnkYwD-17">
          <mxGeometry width="50" height="50" relative="1" as="geometry">
            <mxPoint x="-325" y="-325" as="sourcePoint" />
            <mxPoint x="-325" y="-263" as="targetPoint" />
          </mxGeometry>
        </mxCell>
        <mxCell id="F0mnNlWy2IH6ZafnkYwD-22" value="View Order" style="ellipse;whiteSpace=wrap;html=1;" vertex="1" parent="1">
          <mxGeometry x="-392" y="-190" width="114" height="52" as="geometry" />
        </mxCell>
        <mxCell id="F0mnNlWy2IH6ZafnkYwD-23" value="" style="endArrow=classic;html=1;rounded=0;fontFamily=Helvetica;fontSize=12;fontColor=default;exitX=1;exitY=0.3333333333333333;exitDx=0;exitDy=0;exitPerimeter=0;entryX=0;entryY=0.5;entryDx=0;entryDy=0;" edge="1" parent="1" source="F0mnNlWy2IH6ZafnkYwD-2" target="F0mnNlWy2IH6ZafnkYwD-22">
          <mxGeometry width="50" height="50" relative="1" as="geometry">
            <mxPoint x="-547" y="-315" as="sourcePoint" />
            <mxPoint x="-382" y="-351" as="targetPoint" />
          </mxGeometry>
        </mxCell>
        <mxCell id="F0mnNlWy2IH6ZafnkYwD-24" value="View OderDetail" style="ellipse;whiteSpace=wrap;html=1;" vertex="1" parent="1">
          <mxGeometry x="-210" y="-190" width="114" height="52" as="geometry" />
        </mxCell>
        <mxCell id="F0mnNlWy2IH6ZafnkYwD-25" value="Search Order" style="ellipse;whiteSpace=wrap;html=1;" vertex="1" parent="1">
          <mxGeometry x="-210" y="-86" width="114" height="52" as="geometry" />
        </mxCell>
        <mxCell id="F0mnNlWy2IH6ZafnkYwD-26" value="" style="endArrow=classic;html=1;rounded=0;fontFamily=Helvetica;fontSize=12;fontColor=default;entryX=0;entryY=0.5;entryDx=0;entryDy=0;exitX=1;exitY=0.5;exitDx=0;exitDy=0;" edge="1" parent="1" source="F0mnNlWy2IH6ZafnkYwD-22" target="F0mnNlWy2IH6ZafnkYwD-25">
          <mxGeometry width="50" height="50" relative="1" as="geometry">
            <mxPoint x="-444" y="-112" as="sourcePoint" />
            <mxPoint x="-394" y="-162" as="targetPoint" />
          </mxGeometry>
        </mxCell>
        <mxCell id="F0mnNlWy2IH6ZafnkYwD-28" value="" style="endArrow=classic;html=1;rounded=0;fontFamily=Helvetica;fontSize=12;fontColor=default;entryX=0;entryY=0.5;entryDx=0;entryDy=0;exitX=1;exitY=0.5;exitDx=0;exitDy=0;" edge="1" parent="1" source="F0mnNlWy2IH6ZafnkYwD-22" target="F0mnNlWy2IH6ZafnkYwD-24">
          <mxGeometry width="50" height="50" relative="1" as="geometry">
            <mxPoint x="-268" y="-154" as="sourcePoint" />
            <mxPoint x="-200" y="-50" as="targetPoint" />
          </mxGeometry>
        </mxCell>
        <mxCell id="F0mnNlWy2IH6ZafnkYwD-29" value="Include" style="text;html=1;strokeColor=none;fillColor=none;align=center;verticalAlign=middle;whiteSpace=wrap;rounded=0;fontSize=12;fontFamily=Helvetica;fontColor=default;" vertex="1" parent="1">
          <mxGeometry x="-278" y="-196" width="60" height="30" as="geometry" />
        </mxCell>
        <mxCell id="F0mnNlWy2IH6ZafnkYwD-30" value="Include" style="text;html=1;strokeColor=none;fillColor=none;align=center;verticalAlign=middle;whiteSpace=wrap;rounded=0;fontSize=12;fontFamily=Helvetica;fontColor=default;rotation=55;" vertex="1" parent="1">
          <mxGeometry x="-262" y="-128" width="59" height="32" as="geometry" />
        </mxCell>
        <mxCell id="F0mnNlWy2IH6ZafnkYwD-32" value="View Cart" style="ellipse;whiteSpace=wrap;html=1;" vertex="1" parent="1">
          <mxGeometry x="-386" y="-22" width="114" height="52" as="geometry" />
        </mxCell>
        <mxCell id="F0mnNlWy2IH6ZafnkYwD-33" value="" style="endArrow=classic;html=1;rounded=0;fontFamily=Helvetica;fontSize=12;fontColor=default;entryX=0;entryY=0.5;entryDx=0;entryDy=0;" edge="1" parent="1" target="F0mnNlWy2IH6ZafnkYwD-32">
          <mxGeometry width="50" height="50" relative="1" as="geometry">
            <mxPoint x="-555" y="-323" as="sourcePoint" />
            <mxPoint x="-382" y="-154" as="targetPoint" />
          </mxGeometry>
        </mxCell>
        <mxCell id="F0mnNlWy2IH6ZafnkYwD-34" value="View Profile" style="ellipse;whiteSpace=wrap;html=1;" vertex="1" parent="1">
          <mxGeometry x="-386" y="170" width="114" height="52" as="geometry" />
        </mxCell>
        <mxCell id="F0mnNlWy2IH6ZafnkYwD-35" value="" style="endArrow=classic;html=1;rounded=0;fontFamily=Helvetica;fontSize=12;fontColor=default;exitX=1;exitY=0.3333333333333333;exitDx=0;exitDy=0;exitPerimeter=0;entryX=0;entryY=0.5;entryDx=0;entryDy=0;" edge="1" parent="1" source="F0mnNlWy2IH6ZafnkYwD-2" target="F0mnNlWy2IH6ZafnkYwD-34">
          <mxGeometry width="50" height="50" relative="1" as="geometry">
            <mxPoint x="-545" y="-313" as="sourcePoint" />
            <mxPoint x="-390" y="126" as="targetPoint" />
          </mxGeometry>
        </mxCell>
        <mxCell id="F0mnNlWy2IH6ZafnkYwD-37" value="Update Profile" style="ellipse;whiteSpace=wrap;html=1;" vertex="1" parent="1">
          <mxGeometry x="-180" y="170" width="114" height="52" as="geometry" />
        </mxCell>
        <mxCell id="F0mnNlWy2IH6ZafnkYwD-39" value="Include" style="text;html=1;strokeColor=none;fillColor=none;align=center;verticalAlign=middle;whiteSpace=wrap;rounded=0;fontSize=12;fontFamily=Helvetica;fontColor=default;" vertex="1" parent="1">
          <mxGeometry x="-250" y="170" width="60" height="30" as="geometry" />
        </mxCell>
        <mxCell id="F0mnNlWy2IH6ZafnkYwD-41" value="Checkout" style="ellipse;whiteSpace=wrap;html=1;" vertex="1" parent="1">
          <mxGeometry x="-386" y="79" width="114" height="52" as="geometry" />
        </mxCell>
        <mxCell id="F0mnNlWy2IH6ZafnkYwD-42" value="" style="endArrow=classic;html=1;rounded=0;fontFamily=Helvetica;fontSize=12;fontColor=default;entryX=0;entryY=0.5;entryDx=0;entryDy=0;exitX=1;exitY=0.5;exitDx=0;exitDy=0;" edge="1" parent="1" source="F0mnNlWy2IH6ZafnkYwD-34" target="F0mnNlWy2IH6ZafnkYwD-37">
          <mxGeometry width="50" height="50" relative="1" as="geometry">
            <mxPoint x="-240" y="80" as="sourcePoint" />
            <mxPoint x="-190" y="30" as="targetPoint" />
          </mxGeometry>
        </mxCell>
        <mxCell id="F0mnNlWy2IH6ZafnkYwD-44" value="" style="endArrow=classic;html=1;rounded=0;fontFamily=Helvetica;fontSize=12;fontColor=default;entryX=0;entryY=0.5;entryDx=0;entryDy=0;exitX=1;exitY=0.3333333333333333;exitDx=0;exitDy=0;exitPerimeter=0;" edge="1" parent="1" source="F0mnNlWy2IH6ZafnkYwD-2" target="F0mnNlWy2IH6ZafnkYwD-41">
          <mxGeometry width="50" height="50" relative="1" as="geometry">
            <mxPoint x="-560" y="-320" as="sourcePoint" />
            <mxPoint x="-180" y="40" as="targetPoint" />
          </mxGeometry>
        </mxCell>
        <mxCell id="F0mnNlWy2IH6ZafnkYwD-45" value="" style="endArrow=classic;html=1;rounded=0;fontFamily=Helvetica;fontSize=12;fontColor=default;exitX=0.5;exitY=1;exitDx=0;exitDy=0;entryX=0.5;entryY=0;entryDx=0;entryDy=0;" edge="1" parent="1" source="F0mnNlWy2IH6ZafnkYwD-32" target="F0mnNlWy2IH6ZafnkYwD-41">
          <mxGeometry width="50" height="50" relative="1" as="geometry">
            <mxPoint x="-240" y="80" as="sourcePoint" />
            <mxPoint x="-190" y="30" as="targetPoint" />
          </mxGeometry>
        </mxCell>
        <mxCell id="F0mnNlWy2IH6ZafnkYwD-46" value="include" style="text;html=1;strokeColor=none;fillColor=none;align=center;verticalAlign=middle;whiteSpace=wrap;rounded=0;fontSize=12;fontFamily=Helvetica;fontColor=default;rotation=90;" vertex="1" parent="1">
          <mxGeometry x="-350" y="40" width="60" height="30" as="geometry" />
        </mxCell>
        <mxCell id="F0mnNlWy2IH6ZafnkYwD-50" value="" style="endArrow=classic;html=1;rounded=0;fontFamily=Helvetica;fontSize=12;fontColor=default;entryX=0.5;entryY=0;entryDx=0;entryDy=0;exitX=0;exitY=0.3333333333333333;exitDx=0;exitDy=0;exitPerimeter=0;" edge="1" parent="1" source="F0mnNlWy2IH6ZafnkYwD-7" target="F0mnNlWy2IH6ZafnkYwD-22">
          <mxGeometry width="50" height="50" relative="1" as="geometry">
            <mxPoint x="260" y="-490" as="sourcePoint" />
            <mxPoint x="30" y="-640" as="targetPoint" />
          </mxGeometry>
        </mxCell>
        <mxCell id="F0mnNlWy2IH6ZafnkYwD-51" value="" style="endArrow=classic;html=1;rounded=0;fontFamily=Helvetica;fontSize=12;fontColor=default;exitX=0;exitY=0.3333333333333333;exitDx=0;exitDy=0;exitPerimeter=0;entryX=0.5;entryY=0;entryDx=0;entryDy=0;" edge="1" parent="1" source="F0mnNlWy2IH6ZafnkYwD-7" target="F0mnNlWy2IH6ZafnkYwD-8">
          <mxGeometry width="50" height="50" relative="1" as="geometry">
            <mxPoint x="270" y="-460" as="sourcePoint" />
            <mxPoint x="-310" y="-400" as="targetPoint" />
          </mxGeometry>
        </mxCell>
        <mxCell id="F0mnNlWy2IH6ZafnkYwD-52" value="" style="endArrow=classic;html=1;rounded=0;fontFamily=Helvetica;fontSize=12;fontColor=default;entryX=1;entryY=0.5;entryDx=0;entryDy=0;exitX=0;exitY=0.3333333333333333;exitDx=0;exitDy=0;exitPerimeter=0;" edge="1" parent="1" source="F0mnNlWy2IH6ZafnkYwD-7" target="F0mnNlWy2IH6ZafnkYwD-6">
          <mxGeometry width="50" height="50" relative="1" as="geometry">
            <mxPoint x="290" y="-428" as="sourcePoint" />
            <mxPoint x="60" y="-578" as="targetPoint" />
          </mxGeometry>
        </mxCell>
        <mxCell id="F0mnNlWy2IH6ZafnkYwD-53" value="" style="endArrow=classic;html=1;rounded=0;fontFamily=Helvetica;fontSize=12;fontColor=default;exitX=0;exitY=0.3333333333333333;exitDx=0;exitDy=0;exitPerimeter=0;entryX=1;entryY=0.5;entryDx=0;entryDy=0;" edge="1" parent="1" source="F0mnNlWy2IH6ZafnkYwD-7" target="F0mnNlWy2IH6ZafnkYwD-3">
          <mxGeometry width="50" height="50" relative="1" as="geometry">
            <mxPoint y="-372" as="sourcePoint" />
            <mxPoint x="-230" y="-522" as="targetPoint" />
          </mxGeometry>
        </mxCell>
        <mxCell id="F0mnNlWy2IH6ZafnkYwD-56" value="" style="endArrow=classic;html=1;rounded=0;fontFamily=Helvetica;fontSize=12;fontColor=default;entryX=0;entryY=0.5;entryDx=0;entryDy=0;exitX=1;exitY=0.5;exitDx=0;exitDy=0;" edge="1" parent="1" source="F0mnNlWy2IH6ZafnkYwD-8" target="F0mnNlWy2IH6ZafnkYwD-19">
          <mxGeometry width="50" height="50" relative="1" as="geometry">
            <mxPoint x="-278" y="-361" as="sourcePoint" />
            <mxPoint x="-206" y="-361" as="targetPoint" />
          </mxGeometry>
        </mxCell>
        <mxCell id="F0mnNlWy2IH6ZafnkYwD-19" value="Include" style="text;html=1;strokeColor=none;fillColor=none;align=center;verticalAlign=middle;whiteSpace=wrap;rounded=0;fontSize=12;fontFamily=Helvetica;fontColor=default;" vertex="1" parent="1">
          <mxGeometry x="-278" y="-381" width="60" height="30" as="geometry" />
        </mxCell>
        <mxCell id="F0mnNlWy2IH6ZafnkYwD-57" value="" style="endArrow=classic;html=1;rounded=0;fontFamily=Helvetica;fontSize=12;fontColor=default;entryX=1;entryY=0.5;entryDx=0;entryDy=0;exitX=0;exitY=0.3333333333333333;exitDx=0;exitDy=0;exitPerimeter=0;" edge="1" parent="1" source="F0mnNlWy2IH6ZafnkYwD-7" target="F0mnNlWy2IH6ZafnkYwD-32">
          <mxGeometry width="50" height="50" relative="1" as="geometry">
            <mxPoint x="290" y="-446" as="sourcePoint" />
            <mxPoint x="-325" y="-180" as="targetPoint" />
            <Array as="points">
              <mxPoint x="-90" y="-240" />
              <mxPoint x="-90" y="4" />
            </Array>
          </mxGeometry>
        </mxCell>
        <mxCell id="F0mnNlWy2IH6ZafnkYwD-58" value="" style="endArrow=classic;html=1;rounded=0;fontFamily=Helvetica;fontSize=12;fontColor=default;entryX=0.5;entryY=0;entryDx=0;entryDy=0;exitX=0;exitY=0.3333333333333333;exitDx=0;exitDy=0;exitPerimeter=0;" edge="1" parent="1" source="F0mnNlWy2IH6ZafnkYwD-7" target="F0mnNlWy2IH6ZafnkYwD-34">
          <mxGeometry width="50" height="50" relative="1" as="geometry">
            <mxPoint x="290" y="-446" as="sourcePoint" />
            <mxPoint x="-262" y="14" as="targetPoint" />
            <Array as="points">
              <mxPoint x="-40" y="-240" />
              <mxPoint x="-50" y="110" />
            </Array>
          </mxGeometry>
        </mxCell>
        <mxCell id="F0mnNlWy2IH6ZafnkYwD-59" value="Manage product" style="ellipse;whiteSpace=wrap;html=1;" vertex="1" parent="1">
          <mxGeometry x="60" y="-285" width="114" height="52" as="geometry" />
        </mxCell>
        <mxCell id="F0mnNlWy2IH6ZafnkYwD-60" value="" style="endArrow=classic;html=1;rounded=0;fontFamily=Helvetica;fontSize=12;fontColor=default;exitX=0;exitY=0.3333333333333333;exitDx=0;exitDy=0;exitPerimeter=0;entryX=0.5;entryY=0;entryDx=0;entryDy=0;" edge="1" parent="1" source="F0mnNlWy2IH6ZafnkYwD-7" target="F0mnNlWy2IH6ZafnkYwD-59">
          <mxGeometry width="50" height="50" relative="1" as="geometry">
            <mxPoint x="290" y="-446" as="sourcePoint" />
            <mxPoint x="-325" y="-377" as="targetPoint" />
          </mxGeometry>
        </mxCell>
        <mxCell id="F0mnNlWy2IH6ZafnkYwD-61" value="View Product" style="ellipse;whiteSpace=wrap;html=1;" vertex="1" parent="1">
          <mxGeometry x="-20" y="-175" width="114" height="52" as="geometry" />
        </mxCell>
        <mxCell id="F0mnNlWy2IH6ZafnkYwD-63" value="EditProduct" style="ellipse;whiteSpace=wrap;html=1;" vertex="1" parent="1">
          <mxGeometry x="126" y="-175" width="114" height="52" as="geometry" />
        </mxCell>
        <mxCell id="F0mnNlWy2IH6ZafnkYwD-65" value="" style="endArrow=classic;html=1;rounded=0;fontFamily=Helvetica;fontSize=12;fontColor=default;exitX=0.5;exitY=1;exitDx=0;exitDy=0;entryX=0.5;entryY=0;entryDx=0;entryDy=0;" edge="1" parent="1" source="F0mnNlWy2IH6ZafnkYwD-59" target="F0mnNlWy2IH6ZafnkYwD-61">
          <mxGeometry width="50" height="50" relative="1" as="geometry">
            <mxPoint x="180" y="-165" as="sourcePoint" />
            <mxPoint x="230" y="-215" as="targetPoint" />
          </mxGeometry>
        </mxCell>
        <mxCell id="F0mnNlWy2IH6ZafnkYwD-66" value="" style="endArrow=classic;html=1;rounded=0;fontFamily=Helvetica;fontSize=12;fontColor=default;exitX=0.5;exitY=1;exitDx=0;exitDy=0;entryX=0.5;entryY=0;entryDx=0;entryDy=0;" edge="1" parent="1" source="F0mnNlWy2IH6ZafnkYwD-59" target="F0mnNlWy2IH6ZafnkYwD-63">
          <mxGeometry width="50" height="50" relative="1" as="geometry">
            <mxPoint x="127" y="-223" as="sourcePoint" />
            <mxPoint x="27" y="-175" as="targetPoint" />
          </mxGeometry>
        </mxCell>
        <mxCell id="F0mnNlWy2IH6ZafnkYwD-73" value="Include" style="text;html=1;strokeColor=none;fillColor=none;align=center;verticalAlign=middle;whiteSpace=wrap;rounded=0;fontSize=12;fontFamily=Helvetica;fontColor=default;rotation=45;" vertex="1" parent="1">
          <mxGeometry x="130" y="-226" width="60" height="30" as="geometry" />
        </mxCell>
        <mxCell id="F0mnNlWy2IH6ZafnkYwD-76" value="Include" style="text;html=1;strokeColor=none;fillColor=none;align=center;verticalAlign=middle;whiteSpace=wrap;rounded=0;fontSize=12;fontFamily=Helvetica;fontColor=default;rotation=-30;" vertex="1" parent="1">
          <mxGeometry x="50" y="-211" width="60" height="30" as="geometry" />
        </mxCell>
        <mxCell id="F0mnNlWy2IH6ZafnkYwD-84" value="Manage Order" style="ellipse;whiteSpace=wrap;html=1;" vertex="1" parent="1">
          <mxGeometry x="64" y="-70" width="114" height="52" as="geometry" />
        </mxCell>
        <mxCell id="F0mnNlWy2IH6ZafnkYwD-85" value="View OrderDetail" style="ellipse;whiteSpace=wrap;html=1;" vertex="1" parent="1">
          <mxGeometry x="-16" y="40" width="114" height="52" as="geometry" />
        </mxCell>
        <mxCell id="F0mnNlWy2IH6ZafnkYwD-86" value="Edit Order" style="ellipse;whiteSpace=wrap;html=1;" vertex="1" parent="1">
          <mxGeometry x="130" y="40" width="114" height="52" as="geometry" />
        </mxCell>
        <mxCell id="F0mnNlWy2IH6ZafnkYwD-87" value="" style="endArrow=classic;html=1;rounded=0;fontFamily=Helvetica;fontSize=12;fontColor=default;exitX=0.5;exitY=1;exitDx=0;exitDy=0;entryX=0.5;entryY=0;entryDx=0;entryDy=0;" edge="1" parent="1" source="F0mnNlWy2IH6ZafnkYwD-84" target="F0mnNlWy2IH6ZafnkYwD-85">
          <mxGeometry width="50" height="50" relative="1" as="geometry">
            <mxPoint x="184" y="50" as="sourcePoint" />
            <mxPoint x="234" as="targetPoint" />
          </mxGeometry>
        </mxCell>
        <mxCell id="F0mnNlWy2IH6ZafnkYwD-88" value="" style="endArrow=classic;html=1;rounded=0;fontFamily=Helvetica;fontSize=12;fontColor=default;exitX=0.5;exitY=1;exitDx=0;exitDy=0;entryX=0.5;entryY=0;entryDx=0;entryDy=0;" edge="1" parent="1" source="F0mnNlWy2IH6ZafnkYwD-84" target="F0mnNlWy2IH6ZafnkYwD-86">
          <mxGeometry width="50" height="50" relative="1" as="geometry">
            <mxPoint x="131" y="-8" as="sourcePoint" />
            <mxPoint x="31" y="40" as="targetPoint" />
          </mxGeometry>
        </mxCell>
        <mxCell id="F0mnNlWy2IH6ZafnkYwD-89" value="Include" style="text;html=1;strokeColor=none;fillColor=none;align=center;verticalAlign=middle;whiteSpace=wrap;rounded=0;fontSize=12;fontFamily=Helvetica;fontColor=default;rotation=45;" vertex="1" parent="1">
          <mxGeometry x="110" width="60" height="30" as="geometry" />
        </mxCell>
        <mxCell id="F0mnNlWy2IH6ZafnkYwD-90" value="Include" style="text;html=1;strokeColor=none;fillColor=none;align=center;verticalAlign=middle;whiteSpace=wrap;rounded=0;fontSize=12;fontFamily=Helvetica;fontColor=default;rotation=-30;" vertex="1" parent="1">
          <mxGeometry x="54" y="4" width="60" height="30" as="geometry" />
        </mxCell>
        <mxCell id="F0mnNlWy2IH6ZafnkYwD-91" value="Create Product" style="ellipse;whiteSpace=wrap;html=1;" vertex="1" parent="1">
          <mxGeometry x="240" y="-285" width="114" height="52" as="geometry" />
        </mxCell>
        <mxCell id="F0mnNlWy2IH6ZafnkYwD-92" value="Include" style="text;html=1;strokeColor=none;fillColor=none;align=center;verticalAlign=middle;whiteSpace=wrap;rounded=0;fontSize=12;fontFamily=Helvetica;fontColor=default;rotation=0;" vertex="1" parent="1">
          <mxGeometry x="184" y="-285" width="60" height="20" as="geometry" />
        </mxCell>
        <mxCell id="F0mnNlWy2IH6ZafnkYwD-93" value="" style="endArrow=classic;html=1;rounded=0;fontFamily=Helvetica;fontSize=12;fontColor=default;entryX=0;entryY=0.5;entryDx=0;entryDy=0;exitX=1;exitY=0.5;exitDx=0;exitDy=0;" edge="1" parent="1" source="F0mnNlWy2IH6ZafnkYwD-59" target="F0mnNlWy2IH6ZafnkYwD-91">
          <mxGeometry width="50" height="50" relative="1" as="geometry">
            <mxPoint x="220" y="-175" as="sourcePoint" />
            <mxPoint x="270" y="-225" as="targetPoint" />
          </mxGeometry>
        </mxCell>
        <mxCell id="F0mnNlWy2IH6ZafnkYwD-95" value="" style="endArrow=classic;html=1;rounded=0;fontFamily=Helvetica;fontSize=12;fontColor=default;exitX=0;exitY=0.3333333333333333;exitDx=0;exitDy=0;exitPerimeter=0;entryX=1;entryY=0.5;entryDx=0;entryDy=0;" edge="1" parent="1" source="F0mnNlWy2IH6ZafnkYwD-7" target="F0mnNlWy2IH6ZafnkYwD-84">
          <mxGeometry width="50" height="50" relative="1" as="geometry">
            <mxPoint x="400" y="-560" as="sourcePoint" />
            <mxPoint x="400" y="220" as="targetPoint" />
            <Array as="points">
              <mxPoint x="360" y="-40" />
            </Array>
          </mxGeometry>
        </mxCell>
        <mxCell id="F0mnNlWy2IH6ZafnkYwD-98" value="Manage Category" style="ellipse;whiteSpace=wrap;html=1;" vertex="1" parent="1">
          <mxGeometry x="67" y="104" width="114" height="52" as="geometry" />
        </mxCell>
        <mxCell id="F0mnNlWy2IH6ZafnkYwD-99" value="View CategoryDetail" style="ellipse;whiteSpace=wrap;html=1;" vertex="1" parent="1">
          <mxGeometry x="-13" y="214" width="114" height="52" as="geometry" />
        </mxCell>
        <mxCell id="F0mnNlWy2IH6ZafnkYwD-100" value="Edit Category" style="ellipse;whiteSpace=wrap;html=1;" vertex="1" parent="1">
          <mxGeometry x="133" y="214" width="114" height="52" as="geometry" />
        </mxCell>
        <mxCell id="F0mnNlWy2IH6ZafnkYwD-101" value="" style="endArrow=classic;html=1;rounded=0;fontFamily=Helvetica;fontSize=12;fontColor=default;exitX=0.5;exitY=1;exitDx=0;exitDy=0;entryX=0.5;entryY=0;entryDx=0;entryDy=0;" edge="1" parent="1" source="F0mnNlWy2IH6ZafnkYwD-98" target="F0mnNlWy2IH6ZafnkYwD-99">
          <mxGeometry width="50" height="50" relative="1" as="geometry">
            <mxPoint x="187" y="224" as="sourcePoint" />
            <mxPoint x="237" y="174" as="targetPoint" />
          </mxGeometry>
        </mxCell>
        <mxCell id="F0mnNlWy2IH6ZafnkYwD-102" value="" style="endArrow=classic;html=1;rounded=0;fontFamily=Helvetica;fontSize=12;fontColor=default;exitX=0.5;exitY=1;exitDx=0;exitDy=0;entryX=0.5;entryY=0;entryDx=0;entryDy=0;" edge="1" parent="1" source="F0mnNlWy2IH6ZafnkYwD-98" target="F0mnNlWy2IH6ZafnkYwD-100">
          <mxGeometry width="50" height="50" relative="1" as="geometry">
            <mxPoint x="134" y="166" as="sourcePoint" />
            <mxPoint x="34" y="214" as="targetPoint" />
          </mxGeometry>
        </mxCell>
        <mxCell id="F0mnNlWy2IH6ZafnkYwD-103" value="Include" style="text;html=1;strokeColor=none;fillColor=none;align=center;verticalAlign=middle;whiteSpace=wrap;rounded=0;fontSize=12;fontFamily=Helvetica;fontColor=default;rotation=45;" vertex="1" parent="1">
          <mxGeometry x="147" y="156" width="60" height="30" as="geometry" />
        </mxCell>
        <mxCell id="F0mnNlWy2IH6ZafnkYwD-104" value="Include" style="text;html=1;strokeColor=none;fillColor=none;align=center;verticalAlign=middle;whiteSpace=wrap;rounded=0;fontSize=12;fontFamily=Helvetica;fontColor=default;rotation=-30;" vertex="1" parent="1">
          <mxGeometry x="57" y="178" width="60" height="30" as="geometry" />
        </mxCell>
        <mxCell id="F0mnNlWy2IH6ZafnkYwD-105" value="Create Category" style="ellipse;whiteSpace=wrap;html=1;" vertex="1" parent="1">
          <mxGeometry x="310" y="159" width="114" height="52" as="geometry" />
        </mxCell>
        <mxCell id="F0mnNlWy2IH6ZafnkYwD-106" value="" style="endArrow=classic;html=1;rounded=0;fontFamily=Helvetica;fontSize=12;fontColor=default;exitX=1;exitY=0.5;exitDx=0;exitDy=0;entryX=0;entryY=0.5;entryDx=0;entryDy=0;" edge="1" parent="1" source="F0mnNlWy2IH6ZafnkYwD-98" target="F0mnNlWy2IH6ZafnkYwD-105">
          <mxGeometry width="50" height="50" relative="1" as="geometry">
            <mxPoint x="180" y="140" as="sourcePoint" />
            <mxPoint x="230" y="90" as="targetPoint" />
          </mxGeometry>
        </mxCell>
        <mxCell id="F0mnNlWy2IH6ZafnkYwD-107" value="" style="endArrow=classic;html=1;rounded=0;fontFamily=Helvetica;fontSize=12;fontColor=default;entryX=1;entryY=0.5;entryDx=0;entryDy=0;exitX=0;exitY=0.3333333333333333;exitDx=0;exitDy=0;exitPerimeter=0;" edge="1" parent="1" source="F0mnNlWy2IH6ZafnkYwD-7" target="F0mnNlWy2IH6ZafnkYwD-98">
          <mxGeometry width="50" height="50" relative="1" as="geometry">
            <mxPoint x="380" y="-110" as="sourcePoint" />
            <mxPoint x="430" y="-170" as="targetPoint" />
            <Array as="points">
              <mxPoint x="400" y="130" />
            </Array>
          </mxGeometry>
        </mxCell>
        <mxCell id="F0mnNlWy2IH6ZafnkYwD-108" value="Searach Product" style="ellipse;whiteSpace=wrap;html=1;" vertex="1" parent="1">
          <mxGeometry x="244" y="-181" width="114" height="52" as="geometry" />
        </mxCell>
        <mxCell id="F0mnNlWy2IH6ZafnkYwD-110" value="Include" style="text;html=1;strokeColor=none;fillColor=none;align=center;verticalAlign=middle;whiteSpace=wrap;rounded=0;fontSize=12;fontFamily=Helvetica;fontColor=default;rotation=24;" vertex="1" parent="1">
          <mxGeometry x="207" y="-226" width="60" height="30" as="geometry" />
        </mxCell>
        <mxCell id="F0mnNlWy2IH6ZafnkYwD-111" value="" style="endArrow=classic;html=1;rounded=0;fontFamily=Helvetica;fontSize=12;fontColor=default;entryX=0.5;entryY=0;entryDx=0;entryDy=0;" edge="1" parent="1" target="F0mnNlWy2IH6ZafnkYwD-108">
          <mxGeometry width="50" height="50" relative="1" as="geometry">
            <mxPoint x="170" y="-260" as="sourcePoint" />
            <mxPoint x="220" y="-310" as="targetPoint" />
          </mxGeometry>
        </mxCell>
        <mxCell id="F0mnNlWy2IH6ZafnkYwD-113" value="Search Order" style="ellipse;whiteSpace=wrap;html=1;" vertex="1" parent="1">
          <mxGeometry x="267" y="34" width="114" height="52" as="geometry" />
        </mxCell>
        <mxCell id="F0mnNlWy2IH6ZafnkYwD-114" value="" style="endArrow=classic;html=1;rounded=0;fontFamily=Helvetica;fontSize=12;fontColor=default;entryX=0.5;entryY=0;entryDx=0;entryDy=0;exitX=0.5;exitY=1;exitDx=0;exitDy=0;" edge="1" parent="1" source="F0mnNlWy2IH6ZafnkYwD-84" target="F0mnNlWy2IH6ZafnkYwD-113">
          <mxGeometry width="50" height="50" relative="1" as="geometry">
            <mxPoint x="120" y="-20" as="sourcePoint" />
            <mxPoint x="560" y="50" as="targetPoint" />
          </mxGeometry>
        </mxCell>
        <mxCell id="F0mnNlWy2IH6ZafnkYwD-116" value="Include" style="text;html=1;strokeColor=none;fillColor=none;align=center;verticalAlign=middle;whiteSpace=wrap;rounded=0;fontSize=12;fontFamily=Helvetica;fontColor=default;rotation=22;" vertex="1" parent="1">
          <mxGeometry x="240" y="-18" width="60" height="30" as="geometry" />
        </mxCell>
        <mxCell id="F0mnNlWy2IH6ZafnkYwD-119" value="" style="swimlane;startSize=0;strokeColor=default;fontFamily=Helvetica;fontSize=12;fontColor=default;fillColor=default;html=1;" vertex="1" parent="1">
          <mxGeometry x="-480" y="-680" width="940" height="970" as="geometry" />
        </mxCell>
        <mxCell id="F0mnNlWy2IH6ZafnkYwD-120" value="Shoping&amp;nbsp;" style="text;html=1;strokeColor=none;fillColor=none;align=center;verticalAlign=middle;whiteSpace=wrap;rounded=0;fontSize=12;fontFamily=Helvetica;fontColor=default;" vertex="1" parent="1">
          <mxGeometry x="-73" y="-720" width="60" height="30" as="geometry" />
        </mxCell>
      </root>
    </mxGraphModel>
  </diagram>
</mxfile>
